<?xml version="1.0" encoding="utf-8"?>
<!DOCTYPE svg PUBLIC "-//W3C//DTD SVG 1.1//EN" "http://www.w3.org/Graphics/SVG/1.1/DTD/svg11.dtd">
<svg version="1.1" id="Layer_1" xmlns="http://www.w3.org/2000/svg" xmlns:xlink="http://www.w3.org/1999/xlink" x="0px" y="0px"
	 width="100px" height="100px" viewBox="0 0 100 100" enable-background="new 0 0 100 100" xml:space="preserve">
<circle fill="#FFFFFF" cx="50" cy="49.82" r="47.25"/>
<g>
	<path d="M49.79,15.281c0.31,0,0.616,0,0.926,0c2.206,0.139,3.917,0.961,5.275,2.084c1.343,1.102,2.384,2.621,2.897,4.444
		c0.595,2.137,0.244,4.54-0.513,6.206c-0.771,1.687-2.011,2.92-3.449,3.887c0,4.412,0,8.829,0,13.24c4.328,0,8.659,0,12.987,0
		c0.964-1.477,2.218-2.694,3.935-3.473c1.667-0.754,4.124-1.093,6.229-0.462c1.844,0.549,3.335,1.581,4.448,2.965
		c1.103,1.372,1.909,3.116,2.013,5.365c0,0.189,0,0.375,0,0.562c-0.125,2.24-0.888,4.018-2.013,5.391
		c-1.106,1.355-2.633,2.405-4.448,2.94c-2.104,0.616-4.563,0.294-6.229-0.461c-1.693-0.771-2.972-1.988-3.91-3.472
		c-4.339,0-8.675,0-13.012,0c0,4.011,0,8.249,0,12.381c0,0.286-0.052,0.623,0,0.814c0.036,0.124,0.345,0.297,0.505,0.416
		c1.923,1.396,3.457,3.423,3.73,6.459c0.102,1.088-0.016,2.342-0.295,3.31c-0.543,1.848-1.599,3.379-2.941,4.469
		c-1.396,1.119-3.047,1.867-5.395,2.012c-0.183,0-0.373,0-0.557,0c-2.246-0.117-4.016-0.896-5.395-2.012
		c-1.357-1.108-2.399-2.621-2.935-4.445c-0.625-2.108-0.3-4.565,0.456-6.232c0.785-1.694,1.974-2.979,3.477-3.909
		c0-4.419,0-8.845,0-13.262c-4.219,0-8.63,0-12.967,0c-0.262,0-0.726-0.08-0.902,0c-0.133,0.051-0.294,0.336-0.417,0.482
		c-1.461,1.718-3.56,3.076-6.575,3.215c-1.124,0.056-2.182-0.139-3.099-0.431c-1.74-0.566-3.156-1.62-4.19-2.922
		c-1.071-1.345-1.782-2.882-1.966-5.137c0-0.313,0-0.62,0-0.933c0.006,0,0.015,0,0.021,0c0.141-2.271,0.956-4.044,2.15-5.417
		c1.175-1.343,2.767-2.385,4.726-2.846c4.241-0.997,7.641,1.152,9.306,3.501c0.258,0.36,0.499,0.748,0.762,1.13
		c4.381,0,8.771,0,13.15,0c0-4.411,0-8.829,0-13.24c-1.467-0.958-2.655-2.208-3.449-3.887c-0.77-1.638-1.121-4.093-0.513-6.206
		c0.528-1.842,1.548-3.328,2.898-4.444C45.865,16.243,47.582,15.42,49.79,15.281z"/>
</g>
</svg>
